<svg width="19" height="18" viewBox="0 0 19 18" fill="none" xmlns="http://www.w3.org/2000/svg">
<g clip-path="url(#clip0_30_16147)">
<path d="M1.5 9.5C1.5 5.082 5.082 1.5 9.5 1.5C13.918 1.5 17.5 5.082 17.5 9.5C17.5 13.918 13.918 17.5 9.5 17.5C5.084 17.4947 1.50533 13.9153 1.5 9.5ZM3.1 9.5C3.1 13.0347 5.96533 15.9 9.5 15.9C13.0347 15.9 15.9 13.0347 15.9 9.5C15.9 5.96533 13.0347 3.1 9.5 3.1C5.96733 3.104 3.104 5.968 3.1 9.5Z" fill="#279852"/>
<circle cx="9.5" cy="9.5" r="5" fill="#52FF93"/>
</g>
<defs>
<clipPath id="clip0_30_16147">
<rect width="18" height="17" fill="white" transform="translate(0.5 0.5)"/>
</clipPath>
</defs>
</svg>
