<svg width="21" height="21" viewBox="0 0 21 21" fill="none" xmlns="http://www.w3.org/2000/svg">
<path fill-rule="evenodd" clip-rule="evenodd" d="M16.333 4.45052V7.16635C16.6613 7.16635 16.9864 7.23102 17.2897 7.35665C17.593 7.48229 17.8686 7.66644 18.1008 7.89859C18.3329 8.13073 18.5171 8.40633 18.6427 8.70965C18.7683 9.01296 18.833 9.33805 18.833 9.66635C18.833 9.99466 18.7683 10.3197 18.6427 10.6231C18.5171 10.9264 18.3329 11.202 18.1008 11.4341C17.8686 11.6663 17.593 11.8504 17.2897 11.9761C16.9864 12.1017 16.6613 12.1664 16.333 12.1664V14.6664C16.333 16.0397 14.7655 16.8239 13.6663 15.9997L11.9497 14.7114C11.032 14.0233 9.96362 13.564 8.83299 13.3714V15.7414C8.83308 16.2861 8.63624 16.8126 8.27874 17.2237C7.92124 17.6348 7.4272 17.9028 6.88767 17.9783C6.34814 18.0538 5.79951 17.9317 5.34289 17.6346C4.88628 17.3374 4.55246 16.8852 4.40299 16.3614L3.09466 11.7814C2.62384 11.2253 2.31744 10.549 2.2099 9.82844C2.10235 9.10785 2.19794 8.37155 2.48589 7.7023C2.77385 7.03305 3.24278 6.45739 3.83995 6.04002C4.43712 5.62265 5.13888 5.38012 5.86632 5.33969L8.38132 5.19969C9.61184 5.13121 10.8085 4.77163 11.873 4.15052L13.8263 3.01052C14.938 2.36302 16.333 3.16385 16.333 4.45052ZM5.19466 13.0647L6.00549 15.9039C6.04451 16.0413 6.13194 16.16 6.25164 16.238C6.37133 16.3159 6.5152 16.348 6.65668 16.3282C6.79817 16.3084 6.92771 16.2381 7.02138 16.1302C7.11506 16.0223 7.16654 15.8842 7.16632 15.7414V13.233L5.86632 13.1605C5.64009 13.148 5.41537 13.1159 5.19466 13.0647ZM14.6663 4.45052L12.7122 5.59135C11.525 6.28339 10.2012 6.70826 8.83299 6.83635V11.6855C10.3222 11.8905 11.7397 12.4714 12.9497 13.378L14.6663 14.6664V4.45052ZM7.16632 6.93635L5.95799 7.00302C5.39586 7.03406 4.86579 7.2747 4.47242 7.67745C4.07905 8.08021 3.85095 8.61579 3.83316 9.1785C3.81537 9.7412 4.00918 10.2901 4.37632 10.7169C4.74347 11.1437 5.25728 11.4174 5.81632 11.4839L5.95799 11.4964L7.16632 11.563V6.93635ZM16.333 8.83302V10.4997C16.5454 10.4995 16.7497 10.4181 16.9041 10.2723C17.0586 10.1265 17.1515 9.92723 17.164 9.71519C17.1764 9.50316 17.1074 9.29437 16.9711 9.13149C16.8348 8.96862 16.6414 8.86394 16.4305 8.83885L16.333 8.83302Z" fill="white"/>
</svg>
