<svg width="15" height="12" viewBox="0 0 15 12" fill="none" xmlns="http://www.w3.org/2000/svg">
<path d="M3.83789 6.93443L5.34104 11.0949C5.34104 11.0949 5.52897 11.4842 5.73021 11.4842C5.93144 11.4842 8.92453 8.37043 8.92453 8.37043L12.253 1.94165L3.89153 5.86047L3.83789 6.93443Z" fill="#22283B"/>
<path d="M5.83169 8.00171L5.54314 11.0684C5.54314 11.0684 5.42236 12.0081 6.36181 11.0684C7.30126 10.1287 8.20049 9.40413 8.20049 9.40413" fill="url(#paint0_linear_30_15984)"/>
<path d="M3.86519 7.08289L0.773172 6.07544C0.773172 6.07544 0.403641 5.92552 0.52263 5.58555C0.547125 5.51544 0.596536 5.45579 0.744349 5.35327C1.42946 4.87573 13.4252 0.564152 13.4252 0.564152C13.4252 0.564152 13.7639 0.450019 13.9636 0.525932C14.013 0.541229 14.0575 0.569378 14.0925 0.6075C14.1274 0.645622 14.1517 0.692348 14.1626 0.742899C14.1842 0.832185 14.1933 0.924044 14.1895 1.01582C14.1885 1.09522 14.1789 1.16881 14.1716 1.28421C14.0986 2.46301 11.9122 11.2608 11.9122 11.2608C11.9122 11.2608 11.7814 11.7756 11.3127 11.7932C11.1975 11.797 11.0828 11.7775 10.9753 11.7359C10.8678 11.6943 10.7698 11.6315 10.6872 11.5513C9.76745 10.7601 6.58864 8.62383 5.88621 8.154C5.87037 8.1432 5.85702 8.12913 5.84708 8.11274C5.83713 8.09635 5.83082 8.07801 5.82856 8.05898C5.81875 8.00946 5.87259 7.94812 5.87259 7.94812C5.87259 7.94812 11.4077 3.02808 11.555 2.51158C11.5664 2.47156 11.5233 2.45182 11.4655 2.46935C11.0979 2.6046 4.72483 6.62921 4.02145 7.07338C3.97082 7.0887 3.91731 7.09196 3.86519 7.08289V7.08289Z" fill="url(#paint1_linear_30_15984)"/>
<defs>
<linearGradient id="paint0_linear_30_15984" x1="6.86929" y1="7.23952" x2="6.86929" y2="15.6781" gradientUnits="userSpaceOnUse">
<stop stop-color="#0099DB"/>
<stop offset="1" stop-color="#1E6DD5"/>
</linearGradient>
<linearGradient id="paint1_linear_30_15984" x1="7.34466" y1="-1.97064" x2="7.34466" y2="25.3816" gradientUnits="userSpaceOnUse">
<stop stop-color="#0099DB"/>
<stop offset="1" stop-color="#1E6DD5"/>
</linearGradient>
</defs>
</svg>
