<svg width="13" height="10" viewBox="0 0 13 10" fill="none" xmlns="http://www.w3.org/2000/svg">
<path d="M1.48031 2.03998C1.49584 1.88535 1.43732 1.73252 1.32274 1.62845L0.15561 0.21164V0H3.77956L6.58068 6.19048L9.04333 0H12.498V0.21164L11.5001 1.17578C11.4141 1.24186 11.3714 1.35047 11.3893 1.45797V8.54203C11.3714 8.64953 11.4141 8.75814 11.5001 8.82422L12.4747 9.78836V10H7.57274V9.78836L8.58231 8.8007C8.68152 8.70076 8.68152 8.67137 8.68152 8.51852V2.79247L5.87456 9.97648H5.49524L2.22727 2.79247V7.60729C2.20002 7.80972 2.26674 8.01352 2.40818 8.15991L3.7212 9.76484V9.97648H-0.00195312V9.76484L1.31107 8.15991C1.45148 8.01328 1.5143 7.80812 1.48031 7.60729V2.03998Z" fill="url(#paint0_linear_30_16165)"/>
<defs>
<linearGradient id="paint0_linear_30_16165" x1="6.24805" y1="-2.1875" x2="6.24805" y2="22.0313" gradientUnits="userSpaceOnUse">
<stop stop-color="#0099DB"/>
<stop offset="1" stop-color="#1E6DD5"/>
</linearGradient>
</defs>
</svg>
