<svg width="16" height="15" viewBox="0 0 16 15" fill="none" xmlns="http://www.w3.org/2000/svg">
<path fill-rule="evenodd" clip-rule="evenodd" d="M0.5 7.5C0.5 5.51088 1.29018 3.60322 2.6967 2.1967C4.10322 0.790176 6.01088 0 8 0C9.98912 0 11.8968 0.790176 13.3033 2.1967C14.7098 3.60322 15.5 5.51088 15.5 7.5C15.5 9.48912 14.7098 11.3968 13.3033 12.8033C11.8968 14.2098 9.98912 15 8 15C6.01088 15 4.10322 14.2098 2.6967 12.8033C1.29018 11.3968 0.5 9.48912 0.5 7.5ZM9.5 11.707L5.293 7.5L9.5 3.293V11.707Z" fill="url(#paint0_linear_30_16006)"/>
<defs>
<linearGradient id="paint0_linear_30_16006" x1="8" y1="-3.28125" x2="8" y2="33.0469" gradientUnits="userSpaceOnUse">
<stop stop-color="#0099DB"/>
<stop offset="1" stop-color="#1E6DD5"/>
</linearGradient>
</defs>
</svg>
