<svg width="14" height="10" viewBox="0 0 14 10" fill="none" xmlns="http://www.w3.org/2000/svg">
<path d="M11.9122 0.758315C11.0624 0.407324 10.1511 0.148729 9.19828 0.000621294C9.18092 -0.00223714 9.16359 0.00490625 9.15465 0.0191934C9.03745 0.206828 8.90763 0.451612 8.81672 0.644012C7.79189 0.505907 6.77232 0.505907 5.76851 0.644012C5.67758 0.447336 5.54305 0.206828 5.42532 0.0191934C5.41638 0.00538294 5.39905 -0.00176046 5.38169 0.000621294C4.42939 0.148256 3.51809 0.406851 2.66774 0.758315C2.66038 0.761172 2.65407 0.765939 2.64988 0.772126C0.921329 3.09664 0.447805 5.36402 0.6801 7.60329C0.681151 7.61424 0.687983 7.62472 0.697443 7.63138C1.83789 8.38526 2.94262 8.84293 4.02682 9.14629C4.04417 9.15105 4.06256 9.14534 4.0736 9.13248C4.33007 8.81722 4.55869 8.48481 4.75471 8.13523C4.76628 8.11476 4.75523 8.09047 4.73159 8.08238C4.36896 7.95856 4.02367 7.80759 3.69152 7.63615C3.66524 7.62234 3.66314 7.58851 3.68731 7.57232C3.75721 7.52517 3.82712 7.47612 3.89386 7.42659C3.90594 7.41755 3.92277 7.41564 3.93696 7.42135C6.11905 8.31812 8.48141 8.31812 10.6378 7.42135C10.6519 7.41516 10.6688 7.41707 10.6814 7.42612C10.7481 7.47565 10.818 7.52517 10.8885 7.57232C10.9126 7.58851 10.911 7.62234 10.8848 7.63615C10.5526 7.81092 10.2073 7.95856 9.84417 8.0819C9.82053 8.09 9.81001 8.11476 9.82158 8.13523C10.0218 8.48432 10.2504 8.81673 10.5022 9.132C10.5127 9.14534 10.5316 9.15105 10.5489 9.14629C11.6384 8.84293 12.7431 8.38526 13.8836 7.63138C13.8936 7.62472 13.8999 7.61471 13.9009 7.60376C14.1789 5.01492 13.4353 2.76614 11.9296 0.772599C11.9259 0.765939 11.9196 0.761172 11.9122 0.758315ZM5.08057 6.23981C4.42361 6.23981 3.8823 5.69691 3.8823 5.03017C3.8823 4.36343 4.41311 3.82053 5.08057 3.82053C5.75326 3.82053 6.28934 4.3682 6.27882 5.03017C6.27882 5.69691 5.748 6.23981 5.08057 6.23981ZM9.51097 6.23981C8.85403 6.23981 8.31272 5.69691 8.31272 5.03017C8.31272 4.36343 8.84352 3.82053 9.51097 3.82053C10.1837 3.82053 10.7197 4.3682 10.7092 5.03017C10.7092 5.69691 10.1837 6.23981 9.51097 6.23981Z" fill="url(#paint0_linear_30_16158)"/>
<defs>
<linearGradient id="paint0_linear_30_16158" x1="7.29167" y1="-2.00111" x2="7.29167" y2="20.1541" gradientUnits="userSpaceOnUse">
<stop stop-color="#0099DB"/>
<stop offset="1" stop-color="#1E6DD5"/>
</linearGradient>
</defs>
</svg>
