<svg width="15" height="13" viewBox="0 0 15 13" fill="none" xmlns="http://www.w3.org/2000/svg">
<path d="M14.166 7.00021C14.166 6.19475 13.5131 5.54186 12.7076 5.54186C12.3145 5.54186 11.9584 5.6982 11.6962 5.95109C10.6994 5.23179 9.32594 4.7672 7.79611 4.71379L8.46044 1.58839L10.6308 2.04972C10.6572 2.60151 11.1092 3.04193 11.6675 3.04193C12.2257 3.04193 12.7092 2.57552 12.7092 2.00021C12.7092 1.4249 12.2428 0.958496 11.6675 0.958496C11.2582 0.958496 10.9077 1.19657 10.7374 1.53991L8.31385 1.02477C8.24641 1.01009 8.17584 1.02334 8.11788 1.06116C8.05992 1.09885 8.01924 1.15785 8.00495 1.22542L7.26304 4.71288C5.71086 4.7559 4.31541 5.22113 3.30579 5.94849C3.04381 5.69716 2.6889 5.54199 2.29722 5.54199C1.49176 5.54199 0.838867 6.19488 0.838867 7.00034C0.838867 7.59293 1.19286 8.10184 1.70047 8.33004C1.67798 8.47494 1.66564 8.62204 1.66564 8.7711C1.66564 11.0148 4.27733 12.8336 7.49904 12.8336C10.7207 12.8336 13.3324 11.0148 13.3324 8.7711C13.3324 8.62295 13.3203 8.47688 13.2981 8.33289C13.809 8.10612 14.1657 7.59527 14.1657 7.00034L14.166 7.00021ZM4.16752 8.04206C4.16752 7.46766 4.63497 7.00021 5.20963 7.00021C5.78429 7.00021 6.25082 7.46753 6.25082 8.04206C6.25082 8.61659 5.78364 9.08351 5.20963 9.08351C4.63562 9.08351 4.16752 8.61633 4.16752 8.04206ZM9.97597 10.7945C9.26499 11.5044 7.90268 11.5597 7.50203 11.5597C7.10138 11.5597 5.73893 11.5044 5.02886 10.7944C4.92347 10.689 4.92347 10.5181 5.02886 10.4126C5.13425 10.3072 5.30514 10.3072 5.41067 10.4126C5.85875 10.8606 6.8173 11.0197 7.50203 11.0197C8.18676 11.0197 9.14556 10.8606 9.59442 10.4124C9.70008 10.3072 9.87084 10.3073 9.97623 10.4127C10.0816 10.5182 10.0815 10.6891 9.97597 10.7945ZM9.7926 9.08377C9.2182 9.08377 8.75089 8.61646 8.75089 8.04219C8.75089 7.46792 9.2182 7.00021 9.7926 7.00021C10.367 7.00021 10.8343 7.46766 10.8343 8.04219C10.8343 8.61672 10.367 9.08377 9.7926 9.08377Z" fill="url(#paint0_linear_30_16163)"/>
<defs>
<linearGradient id="paint0_linear_30_16163" x1="7.50242" y1="-1.63919" x2="7.50242" y2="27.1209" gradientUnits="userSpaceOnUse">
<stop stop-color="#0099DB"/>
<stop offset="1" stop-color="#1E6DD5"/>
</linearGradient>
</defs>
</svg>
